/* XPM */
static char *result[] = {
/* columns rows colors chars-per-pixel */
"64 64 14 1 ",
"  c #3A3A4E",
". c #5B4F50",
"X c #6B5A59",
"o c #796A62",
"O c #6FAE5B",
"+ c #7AAB63",
"@ c #938474",
"# c #A1907E",
"$ c #8AC270",
"% c #90C874",
"& c #69A6E2",
"* c #A49896",
"= c #BBAE91",
"- c #C8BD9B",
/* pixels */
"%%$$$$%%%%++++oooooooo++++$$$$%%%%$$$$%%%%++++++++++++%%%%$$$$%%",
"%%$$$$%%%%++++oooooooo++++$$$$%%%%$$$$%%%%++++++++++++%%%%$$$$%%",
"%%$$$$%%%%++++oooooooo++++$$$$%%%%$$$$%%%%++++++++++++%%%%$$$$%%",
"%%$$$$%%%%++++oooooooo++++$$$$%%%%$$$$%%%%++++++++++++%%%%$$$$%%",
"%%%%%%++++@@@@########@@@@++++++++++++++++@@@@oooooooo++++%%%%$$",
"%%%%%%++++@@@@########@@@@++++++++++++++++@@@@oooooooo++++%%%%$$",
"%%%%%%++++@@@@########@@@@++++++++++++++++@@@@oooooooo++++%%%%$$",
"%%%%%%++++@@@@########@@@@++++++++++++++++@@@@oooooooo++++%%%%$$",
"++++++################################################oooo++++++",
"++++++################################################oooo++++++",
"++++++################################################oooo++++++",
"++++++################################################oooo++++++",
"oooooo############====----====####################@@@@ooooooooXX",
"oooooo############====----====####################@@@@ooooooooXX",
"oooooo############====----====####################@@@@ooooooooXX",
"oooooo############====----====####################@@@@ooooooooXX",
"##oooo@@@@########----------------====############ooooXXXXoooooo",
"##oooo@@@@########----------------====############ooooXXXXoooooo",
"##oooo@@@@########----------------====############ooooXXXXoooooo",
"##oooo@@@@########----------------====############ooooXXXXoooooo",
"##XXXXoooo@@@@####--------------------############ooooXXXXoooooo",
"##XXXXoooo@@@@####--------------------############ooooXXXXoooooo",
"##XXXXoooo@@@@####--------------------############ooooXXXXoooooo",
"##XXXXoooo@@@@####--------------------############ooooXXXXoooooo",
"@@XXXXoooooooo########====------------############ooooXXXXoooooo",
"@@XXXXoooooooo########====------------############ooooXXXXoooooo",
"@@XXXXoooooooo########====------------############ooooXXXXoooooo",
"@@XXXXoooooooo########====------------############ooooXXXXoooooo",
"ooXXXXXXXXoooo################====############@@@@ooooXXXXXXXXoo",
"ooXXXXXXXXoooo################====############@@@@ooooXXXXXXXXoo",
"ooXXXXXXXXoooo################====############@@@@ooooXXXXXXXXoo",
"ooXXXXXXXXoooo################====############@@@@ooooXXXXXXXXoo",
"ooXXXXXXXXoooo@@@@############################ooooooooXXXXXXXXoo",
"ooXXXXXXXXoooo@@@@############################ooooooooXXXXXXXXoo",
"ooXXXXXXXXoooo@@@@############################ooooooooXXXXXXXXoo",
"ooXXXXXXXXoooo@@@@############################ooooooooXXXXXXXXoo",
"XXXXXXXXXXXXXXoooo########################ooooooooXXXXXXXXXXXXoo",
"XXXXXXXXXXXXXXoooo########################ooooooooXXXXXXXXXXXXoo",
"XXXXXXXXXXXXXXoooo########################ooooooooXXXXXXXXXXXXoo",
"XXXXXXXXXXXXXXoooo########################ooooooooXXXXXXXXXXXXoo",
"XXXXXXXXXXXXXXoooooooo@@@@########@@@@ooooooooXXXXXXXXXXXX....XX",
"XXXXXXXXXXXXXXoooooooo@@@@########@@@@ooooooooXXXXXXXXXXXX....XX",
"XXXXXXXXXXXXXXoooooooo@@@@########@@@@ooooooooXXXXXXXXXXXX....XX",
"XXXXXXXXXXXXXXoooooooo@@@@########@@@@ooooooooXXXXXXXXXXXX....XX",
"XX....XXXXXXXXOOOOooooooooooooOOOOooooooooooooXXXXXXXXXXXX....XX",
"XX....XXXXXXXXOOOOooooooooooooOOOOooooooooooooXXXXXXXXXXXX....XX",
"XX....XXXXXXXXOOOOooooooooooooOOOOooooooooooooXXXXXXXXXXXX....XX",
"XX....XXXXXXXXOOOOooooooooooooOOOOooooooooooooXXXXXXXXXXXX....XX",
"  ........XXXXOOOOXXXXXXXXooooOOOOooooXXXXXXXXXXXXOOOO........XX",
"  ........XXXXOOOOXXXXXXXXooooOOOOooooXXXXXXXXXXXXOOOO........XX",
"  ........XXXXOOOOXXXXXXXXooooOOOOooooXXXXXXXXXXXXOOOO........XX",
"  ........XXXXOOOOXXXXXXXXooooOOOOooooXXXXXXXXXXXXOOOO........XX",
"**            OOOOXXXXXXXXXXXXOOOOOOOOXXXXOOOOOOOOOOOO          ",
"**            OOOOXXXXXXXXXXXXOOOOOOOOXXXXOOOOOOOOOOOO          ",
"**            OOOOXXXXXXXXXXXXOOOOOOOOXXXXOOOOOOOOOOOO          ",
"**            OOOOXXXXXXXXXXXXOOOOOOOOXXXXOOOOOOOOOOOO          ",
"$$************....OOOO            OOOOOOOO....********OOOO******",
"$$************....OOOO            OOOOOOOO....********OOOO******",
"$$************....OOOO            OOOOOOOO....********OOOO******",
"$$************....OOOO            OOOOOOOO....********OOOO******",
"&&&&&&&&&&&&&&&&&&&&&&&&&&&&&&&&&&&&&&&&&&&&&&&&&&&&&&&&&&&&&&&&",
"&&&&&&&&&&&&&&&&&&&&&&&&&&&&&&&&&&&&&&&&&&&&&&&&&&&&&&&&&&&&&&&&",
"&&&&&&&&&&&&&&&&&&&&&&&&&&&&&&&&&&&&&&&&&&&&&&&&&&&&&&&&&&&&&&&&",
"&&&&&&&&&&&&&&&&&&&&&&&&&&&&&&&&&&&&&&&&&&&&&&&&&&&&&&&&&&&&&&&&"
};
