/* XPM */
static char *result[] = {
/* columns rows colors chars-per-pixel */
"64 64 6 1 ",
"  c #141B1B",
". c #E46D3A",
"X c #FFAD5D",
"o c #8AC270",
"O c #90C874",
"+ c #F2EAF1",
/* pixels */
"OOOOooooOOOOooooOOOOooooOOOOooooOOOOooooOOOOooooOOOOooooOOOOoooo",
"OOOOooooOOOOooooOOOOooooOOOOooooOOOOooooOOOOooooOOOOooooOOOOoooo",
"OOOOooooOOOOooooOOOOooooOOOOooooOOOOooooOOOOooooOOOOooooOOOOoooo",
"OOOOooooOOOOooooOOOOooooOOOOooooOOOOooooOOOOooooOOOOooooOOOOoooo",
"ooooOOOOooooOOOOooooOOOOooooOOOOooooOOOOooooOOOOooooOOOOooooOOOO",
"ooooOOOOooooOOOOooooOOOOooooOOOOooooOOOOooooOOOOooooOOOOooooOOOO",
"ooooOOOOooooOOOOooooOOOOooooOOOOooooOOOOooooOOOOooooOOOOooooOOOO",
"ooooOOOOooooOOOOooooOOOOooooOOOOooooOOOOooooOOOOooooOOOOooooOOOO",
"OOOOooooOOOOooooOOOOooooOOOOooooOOOOooooOOOOooooOOOOooooOOOOoooo",
"OOOOooooOOOOooooOOOOooooOOOOooooOOOOooooOOOOooooOOOOooooOOOOoooo",
"OOOOooooOOOOooooOOOOooooOOOOooooOOOOooooOOOOooooOOOOooooOOOOoooo",
"OOOOooooOOOOooooOOOOooooOOOOooooOOOOooooOOOOooooOOOOooooOOOOoooo",
"ooooOOOOooooOOOOooooOOOOoo            OOooooOOOOooooOOOOooooOOOO",
"ooooOOOOooooOOOOooooOOOOoo            OOooooOOOOooooOOOOooooOOOO",
"ooooOOOOooooOOOOooooOOOOoo            OOooooOOOOooooOOOOooooOOOO",
"ooooOOOOooooOOOOooooOOOOoo            OOooooOOOOooooOOOOooooOOOO",
"OOOOooooOOOOooooOOOOoo    ....++++XXXX    OOooooOOOOooooOOOOoooo",
"OOOOooooOOOOooooOOOOoo    ....++++XXXX    OOooooOOOOooooOOOOoooo",
"OOOOooooOOOOooooOOOOoo    ....++++XXXX    OOooooOOOOooooOOOOoooo",
"OOOOooooOOOOooooOOOOoo    ....++++XXXX    OOooooOOOOooooOOOOoooo",
"ooooOOOOooooOOOOoo    ....++++........XXXX    OOooooOOOOooooOOOO",
"ooooOOOOooooOOOOoo    ....++++........XXXX    OOooooOOOOooooOOOO",
"ooooOOOOooooOOOOoo    ....++++........XXXX    OOooooOOOOooooOOOO",
"ooooOOOOooooOOOOoo    ....++++........XXXX    OOooooOOOOooooOOOO",
"OOOOooooOOOOoo    ....XXXX................XXXX    OOooooOOOOoooo",
"OOOOooooOOOOoo    ....XXXX................XXXX    OOooooOOOOoooo",
"OOOOooooOOOOoo    ....XXXX................XXXX    OOooooOOOOoooo",
"OOOOooooOOOOoo    ....XXXX................XXXX    OOooooOOOOoooo",
"ooooOOOOooooOO    ....XXXX................XXXX    ooOOOOooooOOOO",
"ooooOOOOooooOO    ....XXXX................XXXX    ooOOOOooooOOOO",
"ooooOOOOooooOO    ....XXXX................XXXX    ooOOOOooooOOOO",
"ooooOOOOooooOO    ....XXXX................XXXX    ooOOOOooooOOOO",
"OOOOooooOOOOoo    ....XXXX................XXXX    OOooooOOOOoooo",
"OOOOooooOOOOoo    ....XXXX................XXXX    OOooooOOOOoooo",
"OOOOooooOOOOoo    ....XXXX................XXXX    OOooooOOOOoooo",
"OOOOooooOOOOoo    ....XXXX................XXXX    OOooooOOOOoooo",
"ooooOOOOooooOO    ....XXXX................XXXX    ooOOOOooooOOOO",
"ooooOOOOooooOO    ....XXXX................XXXX    ooOOOOooooOOOO",
"ooooOOOOooooOO    ....XXXX................XXXX    ooOOOOooooOOOO",
"ooooOOOOooooOO    ....XXXX................XXXX    ooOOOOooooOOOO",
"OOOOooooOOOOooooOO    ....XXXX........XXXX    ooOOOOooooOOOOoooo",
"OOOOooooOOOOooooOO    ....XXXX........XXXX    ooOOOOooooOOOOoooo",
"OOOOooooOOOOooooOO    ....XXXX........XXXX    ooOOOOooooOOOOoooo",
"OOOOooooOOOOooooOO    ....XXXX........XXXX    ooOOOOooooOOOOoooo",
"ooooOOOOooooOOOOooooOO    ....XXXXXXXX    ooOOOOooooOOOOooooOOOO",
"ooooOOOOooooOOOOooooOO    ....XXXXXXXX    ooOOOOooooOOOOooooOOOO",
"ooooOOOOooooOOOOooooOO    ....XXXXXXXX    ooOOOOooooOOOOooooOOOO",
"ooooOOOOooooOOOOooooOO    ....XXXXXXXX    ooOOOOooooOOOOooooOOOO",
"OOOOooooOOOOooooOOOOooooOO            ooOOOOooooOOOOooooOOOOoooo",
"OOOOooooOOOOooooOOOOooooOO            ooOOOOooooOOOOooooOOOOoooo",
"OOOOooooOOOOooooOOOOooooOO            ooOOOOooooOOOOooooOOOOoooo",
"OOOOooooOOOOooooOOOOooooOO            ooOOOOooooOOOOooooOOOOoooo",
"ooooOOOOooooOOOOooooOOOOooooOOOOooooOOOOooooOOOOooooOOOOooooOOOO",
"ooooOOOOooooOOOOooooOOOOooooOOOOooooOOOOooooOOOOooooOOOOooooOOOO",
"ooooOOOOooooOOOOooooOOOOooooOOOOooooOOOOooooOOOOooooOOOOooooOOOO",
"ooooOOOOooooOOOOooooOOOOooooOOOOooooOOOOooooOOOOooooOOOOooooOOOO",
"OOOOooooOOOOooooOOOOooooOOOOooooOOOOooooOOOOooooOOOOooooOOOOoooo",
"OOOOooooOOOOooooOOOOooooOOOOooooOOOOooooOOOOooooOOOOooooOOOOoooo",
"OOOOooooOOOOooooOOOOooooOOOOooooOOOOooooOOOOooooOOOOooooOOOOoooo",
"OOOOooooOOOOooooOOOOooooOOOOooooOOOOooooOOOOooooOOOOooooOOOOoooo",
"ooooOOOOooooOOOOooooOOOOooooOOOOooooOOOOooooOOOOooooOOOOooooOOOO",
"ooooOOOOooooOOOOooooOOOOooooOOOOooooOOOOooooOOOOooooOOOOooooOOOO",
"ooooOOOOooooOOOOooooOOOOooooOOOOooooOOOOooooOOOOooooOOOOooooOOOO",
"ooooOOOOooooOOOOooooOOOOooooOOOOooooOOOOooooOOOOooooOOOOooooOOOO"
};
