/* XPM */
static char *result[] = {
/* columns rows colors chars-per-pixel */
"64 64 11 1 ",
"  c #3A3A4E",
". c #46465C",
"X c #9D624B",
"o c #AB7754",
"O c #BD8E61",
"+ c #EF9850",
"@ c #8AC270",
"# c #90C874",
"$ c #F5C459",
"% c #FBEA61",
"& c #A49896",
/* pixels */
"####@@@@####@@@@####@@@@####@@@@####@@@@####@@@@####@@@@####@@@@",
"####@@@@####@@@@####@@@@####@@@@####@@@@####@@@@####@@@@####@@@@",
"####@@@@####@@@@####@@@@####@@@@####@@@@####@@@@####@@@@####@@@@",
"####@@@@####@@@@####@@@@####@@@@####@@@@####@@@@####@@@@####@@@@",
"@@@@####@@@@####@@@@####@@@@####@@@@####@@@@####@@@@####@@@@####",
"@@@@####@@@@####@@@@####@@@@####@@@@####@@@@####@@@@####@@@@####",
"@@@@####@@@@####@@@@####@@@@####@@@@####@@@@####@@@@####@@@@####",
"@@@@####@@@@####@@@@####@@@@####@@@@####@@@@####@@@@####@@@@####",
"####@@@@####@@@@####%%%%####@@@@####@@@@####@@@@####@@@@####@@@@",
"####@@@@####@@@@####%%%%####@@@@####@@@@####@@@@####@@@@####@@@@",
"####@@@@####@@@@####%%%%####@@@@####@@@@####@@@@####@@@@####@@@@",
"####@@@@####@@@@####%%%%####@@@@####@@@@####@@@@####@@@@####@@@@",
"@@@@####%%%%####@@@@####@@@@####@@@@####@@@@%%%%@@@@####@@@@####",
"@@@@####%%%%####@@@@####@@@@####@@@@####@@@@%%%%@@@@####@@@@####",
"@@@@####%%%%####@@@@####@@@@####@@@@####@@@@%%%%@@@@####@@@@####",
"@@@@####%%%%####@@@@####@@@@####@@@@####@@@@%%%%@@@@####@@@@####",
"####@@@@####@@@@####@@@@$$$$%%%%####@@@@####@@@@####@@@@%%%%@@@@",
"####@@@@####@@@@####@@@@$$$$%%%%####@@@@####@@@@####@@@@%%%%@@@@",
"####@@@@####@@@@####@@@@$$$$%%%%####@@@@####@@@@####@@@@%%%%@@@@",
"####@@@@####@@@@####@@@@$$$$%%%%####@@@@####@@@@####@@@@%%%%@@@@",
"@@@@####@@@@%%%%@@@@%%%%@@@@%%%%$$$$%%%%++++####%%%%####@@@@####",
"@@@@####@@@@%%%%@@@@%%%%@@@@%%%%$$$$%%%%++++####%%%%####@@@@####",
"@@@@####@@@@%%%%@@@@%%%%@@@@%%%%$$$$%%%%++++####%%%%####@@@@####",
"@@@@####@@@@%%%%@@@@%%%%@@@@%%%%$$$$%%%%++++####%%%%####@@@@####",
"####@@@@%%%%$$$$####@@@@####$$$$%%%%%%%%$$$$@@@@%%%%%%%%####@@@@",
"####@@@@%%%%$$$$####@@@@####$$$$%%%%%%%%$$$$@@@@%%%%%%%%####@@@@",
"####@@@@%%%%$$$$####@@@@####$$$$%%%%%%%%$$$$@@@@%%%%%%%%####@@@@",
"####@@@@%%%%$$$$####@@@@####$$$$%%%%%%%%$$$$@@@@%%%%%%%%####@@@@",
"@@@@####++++++++@@@@####++++++++$$$$++++@@@@####........@@@@####",
"@@@@####++++++++@@@@####++++++++$$$$++++@@@@####........@@@@####",
"@@@@####++++++++@@@@####++++++++$$$$++++@@@@####........@@@@####",
"@@@@####++++++++@@@@####++++++++$$$$++++@@@@####........@@@@####",
"####@@@@$$$$++++$$$$++++++++++++++++++++%%%%....$$$$....####@@@@",
"####@@@@$$$$++++$$$$++++++++++++++++++++%%%%....$$$$....####@@@@",
"####@@@@$$$$++++$$$$++++++++++++++++++++%%%%....$$$$....####@@@@",
"####@@@@$$$$++++$$$$++++++++++++++++++++%%%%....$$$$....####@@@@",
"@@@@....        %%%%%%%%$$$$++++++++....%%%%++++++++%%%%    ####",
"@@@@....        %%%%%%%%$$$$++++++++....%%%%++++++++%%%%    ####",
"@@@@....        %%%%%%%%$$$$++++++++....%%%%++++++++%%%%    ####",
"@@@@....        %%%%%%%%$$$$++++++++....%%%%++++++++%%%%    ####",
"####    OOOO$$$$$$$$%%%%%%%%%%%%%%%%%%%%%%%%$$$$$$$$oooo    @@@@",
"####    OOOO$$$$$$$$%%%%%%%%%%%%%%%%%%%%%%%%$$$$$$$$oooo    @@@@",
"####    OOOO$$$$$$$$%%%%%%%%%%%%%%%%%%%%%%%%$$$$$$$$oooo    @@@@",
"####    OOOO$$$$$$$$%%%%%%%%%%%%%%%%%%%%%%%%$$$$$$$$oooo    @@@@",
"@@@@####....ooooOOOO$$$$$$$$$$$$$$$$oooo$$$$oooooooo    @@@@####",
"@@@@####....ooooOOOO$$$$$$$$$$$$$$$$oooo$$$$oooooooo    @@@@####",
"@@@@####....ooooOOOO$$$$$$$$$$$$$$$$oooo$$$$oooooooo    @@@@####",
"@@@@####....ooooOOOO$$$$$$$$$$$$$$$$oooo$$$$oooooooo    @@@@####",
"####@@@@&&&&........    OOOOooooXXXXoooo            &&&&####@@@@",
"####@@@@&&&&........    OOOOooooXXXXoooo            &&&&####@@@@",
"####@@@@&&&&........    OOOOooooXXXXoooo            &&&&####@@@@",
"####@@@@&&&&........    OOOOooooXXXXoooo            &&&&####@@@@",
"@@@@####@@@@&&&&    oooo                XXXX....&&&&####@@@@####",
"@@@@####@@@@&&&&    oooo                XXXX....&&&&####@@@@####",
"@@@@####@@@@&&&&    oooo                XXXX....&&&&####@@@@####",
"@@@@####@@@@&&&&    oooo                XXXX....&&&&####@@@@####",
"####@@@@####    oooo    ....&&&&&&&&....    oooo....@@@@####@@@@",
"####@@@@####    oooo    ....&&&&&&&&....    oooo....@@@@####@@@@",
"####@@@@####    oooo    ....&&&&&&&&....    oooo....@@@@####@@@@",
"####@@@@####    oooo    ....&&&&&&&&....    oooo....@@@@####@@@@",
"@@@@####@@@@....    &&&&@@@@####@@@@####&&&&........####@@@@####",
"@@@@####@@@@....    &&&&@@@@####@@@@####&&&&........####@@@@####",
"@@@@####@@@@....    &&&&@@@@####@@@@####&&&&........####@@@@####",
"@@@@####@@@@....    &&&&@@@@####@@@@####&&&&........####@@@@####"
};
