/* XPM */
static char *result[] = {
/* columns rows colors chars-per-pixel */
"64 64 14 1 ",
"  c #3A3A4E",
". c #5B4F50",
"X c #6B5A59",
"o c #796A62",
"O c #6FAE5B",
"+ c #7AAB63",
"@ c #938474",
"# c #A1907E",
"$ c #8AC270",
"% c #90C874",
"& c #69A6E2",
"* c #A49896",
"= c #BBAE91",
"- c #C8BD9B",
/* pixels */
"&&&&&&&&&&&&....oooooooooooo@@@@################++++$$$$%%%%%%%%",
"&&&&&&&&&&&&....oooooooooooo@@@@################++++$$$$%%%%%%%%",
"&&&&&&&&&&&&    oooooooooooooooooooo@@@@########++++%%%%$$$$$$$$",
"&&&&&&&&&&&&    oooooooooooooooooooo@@@@########++++%%%%$$$$$$$$",
"&&&&&&&&&&&&    oooooooooooooooooooo@@@@########++++%%%%$$$$$$$$",
"&&&&&&&&&&&&    oooooooooooooooooooo@@@@########++++%%%%$$$$$$$$",
"&&&&&&&&&&&&    oooooooooooooooooooooooo@@@@####++++$$$$%%%%%%%%",
"&&&&&&&&&&&&    oooooooooooooooooooooooo@@@@####++++$$$$%%%%%%%%",
"&&&&&&&&&&&&    oooooooooooooooooooooooo@@@@####++++$$$$%%%%%%%%",
"&&&&&&&&&&&&    oooooooooooooooooooooooo@@@@####++++$$$$%%%%%%%%",
"&&&&&&&&&&&&....ooooooooXXXXoooooooooooooooo####XXXX++++++++++++",
"&&&&&&&&&&&&....ooooooooXXXXoooooooooooooooo####XXXX++++++++++++",
"&&&&&&&&&&&&....ooooooooXXXXoooooooooooooooo####XXXX++++++++++++",
"&&&&&&&&&&&&....ooooooooXXXXoooooooooooooooo####XXXX++++++++++++",
"&&&&&&&&&&&&****    XXXXoooooooo@@@@====@@@@ooooooooXXXXXXXXoooo",
"&&&&&&&&&&&&****    XXXXoooooooo@@@@====@@@@ooooooooXXXXXXXXoooo",
"&&&&&&&&&&&&****    XXXXoooooooo@@@@====@@@@ooooooooXXXXXXXXoooo",
"&&&&&&&&&&&&****    XXXXoooooooo@@@@====@@@@ooooooooXXXXXXXXoooo",
"&&&&&&&&&&&&    ....oooooooooooo@@@@----====@@@@oooooooooooooooo",
"&&&&&&&&&&&&    ....oooooooooooo@@@@----====@@@@oooooooooooooooo",
"&&&&&&&&&&&&    ....oooooooooooo@@@@----====@@@@oooooooooooooooo",
"&&&&&&&&&&&&    ....oooooooooooo@@@@----====@@@@oooooooooooooooo",
"&&&&&&&&&&&&    XXXXoooo@@@@oooo@@@@####----====ooooooooooooXXXX",
"&&&&&&&&&&&&    XXXXoooo@@@@oooo@@@@####----====ooooooooooooXXXX",
"&&&&&&&&&&&&    XXXXoooo@@@@oooo@@@@####----====ooooooooooooXXXX",
"&&&&&&&&&&&&    XXXXoooo@@@@oooo@@@@####----====ooooooooooooXXXX",
"&&&&&&&&    ....XXXXoooo########oooo@@@@####@@@@oooo@@@@ooooXXXX",
"&&&&&&&&    ....XXXXoooo########oooo@@@@####@@@@oooo@@@@ooooXXXX",
"&&&&&&&&    ....XXXXoooo########oooo@@@@####@@@@oooo@@@@ooooXXXX",
"&&&&&&&&    ....XXXXoooo########oooo@@@@####@@@@oooo@@@@ooooXXXX",
"&&&&&&&&    ....OOOO@@@@########@@@@oooooooooooo@@@@####@@@@XXXX",
"&&&&&&&&    ....OOOO@@@@########@@@@oooooooooooo@@@@####@@@@XXXX",
"&&&&&&&&    ....OOOO@@@@########@@@@oooooooooooo@@@@####@@@@XXXX",
"&&&&&&&&    ....OOOO@@@@########@@@@oooooooooooo@@@@####@@@@XXXX",
"&&&&&&&&OOOOOOOOoooo@@@@@@@@ooooooooooooXXXX@@@@####----@@@@XXXX",
"&&&&&&&&OOOOOOOOoooo@@@@@@@@ooooooooooooXXXX@@@@####----@@@@XXXX",
"&&&&&&&&OOOOOOOOoooo@@@@@@@@ooooooooooooXXXX@@@@####----@@@@XXXX",
"&&&&&&&&OOOOOOOOoooo@@@@@@@@ooooooooooooXXXX@@@@####----@@@@XXXX",
"&&&&OOOOOOOOXXXXXXXXooooooooooooooooXXXXoooo####----====@@@@XXXX",
"&&&&OOOOOOOOXXXXXXXXooooooooooooooooXXXXoooo####----====@@@@XXXX",
"&&&&OOOOOOOOXXXXXXXXooooooooooooooooXXXXoooo####----====@@@@XXXX",
"&&&&OOOOOOOOXXXXXXXXooooooooooooooooXXXXoooo####----====@@@@XXXX",
"&&&&&&&&    ....XXXXXXXXooooooooXXXXXXXXoooo############ooooXXXX",
"&&&&&&&&    ....XXXXXXXXooooooooXXXXXXXXoooo############ooooXXXX",
"&&&&&&&&    ....XXXXXXXXooooooooXXXXXXXXoooo############ooooXXXX",
"&&&&&&&&    ....XXXXXXXXooooooooXXXXXXXXoooo############ooooXXXX",
"&&&&&&&&****    OOOOXXXXXXXXOOOOXXXXoooooooo########@@@@oooo....",
"&&&&&&&&****    OOOOXXXXXXXXOOOOXXXXoooooooo########@@@@oooo....",
"&&&&&&&&****    OOOOXXXXXXXXOOOOXXXXoooooooo########@@@@oooo....",
"&&&&&&&&****    OOOOXXXXXXXXOOOOXXXXoooooooo########@@@@oooo....",
"&&&&&&&&&&&&****OOOO        OOOOXXXXOOOOooooOOOOoooooooooooo....",
"&&&&&&&&&&&&****OOOO        OOOOXXXXOOOOooooOOOOoooooooooooo....",
"&&&&&&&&&&&&****OOOO        OOOOXXXXOOOOooooOOOOoooooooooooo....",
"&&&&&&&&&&&&****OOOO        OOOOXXXXOOOOooooOOOOoooooooooooo....",
"&&&&&&&&&&&&&&&&OOOO********OOOOOOOOOOOOXXXXOOOOXXXXXXXX....    ",
"&&&&&&&&&&&&&&&&OOOO********OOOOOOOOOOOOXXXXOOOOXXXXXXXX....    ",
"&&&&&&&&&&&&&&&&OOOO********OOOOOOOOOOOOXXXXOOOOXXXXXXXX....    ",
"&&&&&&&&&&&&&&&&OOOO********OOOOOOOOOOOOXXXXOOOOXXXXXXXX....    ",
"&&&&&&&&&&&&&&&&&&&&&&&&&&&&&&&&OOOOOOOO    OOOO    OOOO    ****",
"&&&&&&&&&&&&&&&&&&&&&&&&&&&&&&&&OOOOOOOO    OOOO    OOOO    ****",
"&&&&&&&&&&&&&&&&&&&&&&&&&&&&&&&&OOOOOOOO    OOOO    OOOO    ****",
"&&&&&&&&&&&&&&&&&&&&&&&&&&&&&&&&OOOOOOOO    OOOO    OOOO    ****",
"&&&&&&&&&&&&&&&&&&&&&&&&&&&&&&&&&&&&&&&&&&&&&&&&&&&&&&&&&&&&&&&&",
"&&&&&&&&&&&&&&&&&&&&&&&&&&&&&&&&&&&&&&&&&&&&&&&&&&&&&&&&&&&&&&&&"
};
