/* XPM */
static char *result[] = {
/* columns rows colors chars-per-pixel */
"64 64 13 1 ",
"  c #3A3A4E",
". c #5B4F50",
"X c #6B5A59",
"o c #796A62",
"O c #7AAB63",
"+ c #938474",
"@ c #A1907E",
"# c #8AC270",
"$ c #90C874",
"% c #69A6E2",
"& c #A49896",
"* c #BBAE91",
"= c #C8BD9B",
/* pixels */
"%%%%%%%%%%%%%%%%&&&&    XXXXXXXXXXXXXXXXoooo++++OOOO$$$$########",
"%%%%%%%%%%%%%%%%&&&&    XXXXXXXXXXXXXXXXoooo++++OOOO$$$$########",
"%%%%%%%%%%%%%%%%&&&&    XXXXXXXXXXXXXXXXoooo++++OOOO$$$$########",
"%%%%%%%%%%%%%%%%&&&&    XXXXXXXXXXXXXXXXoooo++++OOOO$$$$########",
"%%%%%%%%%%%%%%%%&&&&    oooo++++@@@@@@@@@@@@@@@@OOOO####$$$$$$$$",
"%%%%%%%%%%%%%%%%&&&&    oooo++++@@@@@@@@@@@@@@@@OOOO####$$$$$$$$",
"%%%%%%%%%%%%%%%%&&&&    oooo++++@@@@@@@@@@@@@@@@OOOO####$$$$$$$$",
"%%%%%%%%%%%%%%%%&&&&    oooo++++@@@@@@@@@@@@@@@@OOOO####$$$$$$$$",
"%%%%%%%%%%%%&&&&    ....++++@@@@============@@@@OOOO$$$$########",
"%%%%%%%%%%%%&&&&    ....++++@@@@============@@@@OOOO$$$$########",
"%%%%%%%%%%%%&&&&    ....++++@@@@============@@@@OOOO$$$$########",
"%%%%%%%%%%%%&&&&    ....++++@@@@============@@@@OOOO$$$$########",
"%%%%%%%%%%%%    ....oooo@@@@****============@@@@OOOO####$$$$$$$$",
"%%%%%%%%%%%%    ....oooo@@@@****============@@@@OOOO####$$$$$$$$",
"%%%%%%%%%%%%    ....oooo@@@@****============@@@@OOOO####$$$$$$$$",
"%%%%%%%%%%%%    ....oooo@@@@****============@@@@OOOO####$$$$$$$$",
"%%%%%%%%&&&&    oooooooo++++@@@@@@@@********@@@@XXXXOOOO########",
"%%%%%%%%&&&&    oooooooo++++@@@@@@@@********@@@@XXXXOOOO########",
"%%%%%%%%&&&&    oooooooo++++@@@@@@@@********@@@@XXXXOOOO########",
"%%%%%%%%&&&&    oooooooo++++@@@@@@@@********@@@@XXXXOOOO########",
"%%%%%%%%    XXXXoooooooooooo@@@@++++@@@@@@@@@@@@ooooOOOO$$$$$$$$",
"%%%%%%%%    XXXXoooooooooooo@@@@++++@@@@@@@@@@@@ooooOOOO$$$$$$$$",
"%%%%%%%%    XXXXoooooooooooo@@@@++++@@@@@@@@@@@@ooooOOOO$$$$$$$$",
"%%%%%%%%    XXXXoooooooooooo@@@@++++@@@@@@@@@@@@ooooOOOO$$$$$$$$",
"%%%%%%%%    XXXXoooooooooooooooooooooooo++++@@@@++++OOOO########",
"%%%%%%%%    XXXXoooooooooooooooooooooooo++++@@@@++++OOOO########",
"%%%%%%%%    XXXXoooooooooooooooooooooooo++++@@@@++++OOOO########",
"%%%%%%%%    XXXXoooooooooooooooooooooooo++++@@@@++++OOOO########",
"%%%%%%%%    XXXXooooooooooooooooooooooooooooooooOOOO$$$$####$$$$",
"%%%%%%%%    XXXXooooooooooooooooooooooooooooooooOOOO$$$$####$$$$",
"%%%%%%%%    XXXXooooooooooooooooooooooooooooooooOOOO$$$$####$$$$",
"%%%%%%%%    XXXXooooooooooooooooooooooooooooooooOOOO$$$$####$$$$",
"%%%%%%%%    ....ooooXXXXooooooooXXXXXXXXXXXXOOOO$$$$############",
"%%%%%%%%    ....ooooXXXXooooooooXXXXXXXXXXXXOOOO$$$$############",
"%%%%%%%%    ....ooooXXXXooooooooXXXXXXXXXXXXOOOO$$$$############",
"%%%%%%%%    ....ooooXXXXooooooooXXXXXXXXXXXXOOOO$$$$############",
"%%%%%%%%&&&&    ....XXXXXXXXXXXXXXXXoooo++++OOOO####$$$$####$$$$",
"%%%%%%%%&&&&    ....XXXXXXXXXXXXXXXXoooo++++OOOO####$$$$####$$$$",
"%%%%%%%%&&&&    ....XXXXXXXXXXXXXXXXoooo++++OOOO####$$$$####$$$$",
"%%%%%%%%&&&&    ....XXXXXXXXXXXXXXXXoooo++++OOOO####$$$$####$$$$",
"%%%%%%%%%%%%&&&&    ........XXXXoooo++++@@@@OOOO$$$$####$$$$####",
"%%%%%%%%%%%%&&&&    ........XXXXoooo++++@@@@OOOO$$$$####$$$$####",
"%%%%%%%%%%%%&&&&    ........XXXXoooo++++@@@@OOOO$$$$####$$$$####",
"%%%%%%%%%%%%&&&&    ........XXXXoooo++++@@@@OOOO$$$$####$$$$####",
"%%%%%%%%%%%%%%%%&&&&    XXXXoooo@@@@****====OOOO####$$$$####$$$$",
"%%%%%%%%%%%%%%%%&&&&    XXXXoooo@@@@****====OOOO####$$$$####$$$$",
"%%%%%%%%%%%%%%%%&&&&    XXXXoooo@@@@****====OOOO####$$$$####$$$$",
"%%%%%%%%%%%%%%%%&&&&    XXXXoooo@@@@****====OOOO####$$$$####$$$$",
"%%%%%%%%%%%%%%%%&&&&....oooooooo@@@@========XXXXOOOO####$$$$####",
"%%%%%%%%%%%%%%%%&&&&....oooooooo@@@@========XXXXOOOO####$$$$####",
"%%%%%%%%%%%%%%%%&&&&....oooooooo@@@@========XXXXOOOO####$$$$####",
"%%%%%%%%%%%%%%%%&&&&....oooooooo@@@@========XXXXOOOO####$$$$####",
"%%%%%%%%%%%%%%%%....XXXXoooooooo****========ooooOOOO$$$$####$$$$",
"%%%%%%%%%%%%%%%%....XXXXoooooooo****========ooooOOOO$$$$####$$$$",
"%%%%%%%%%%%%%%%%....XXXXoooooooo****========ooooOOOO$$$$####$$$$",
"%%%%%%%%%%%%%%%%....XXXXoooooooo****========ooooOOOO$$$$####$$$$",
"%%%%%%%%%%%%%%%%    XXXXoooooooo@@@@****====@@@@XXXXOOOO$$$$####",
"%%%%%%%%%%%%%%%%    XXXXoooooooo@@@@****====@@@@XXXXOOOO$$$$####",
"%%%%%%%%%%%%%%%%    XXXXoooooooo@@@@****====@@@@XXXXOOOO$$$$####",
"%%%%%%%%%%%%%%%%    XXXXoooooooo@@@@****====@@@@XXXXOOOO$$$$####",
"%%%%%%%%%%%%%%%%    oooooooooooooooo++++@@@@@@@@XXXXOOOO####$$$$",
"%%%%%%%%%%%%%%%%    oooooooooooooooo++++@@@@@@@@XXXXOOOO####$$$$",
"%%%%%%%%%%%%%%%%    oooooooooooooooo++++@@@@@@@@XXXXOOOO####$$$$",
"%%%%%%%%%%%%%%%%    oooooooooooooooo++++@@@@@@@@XXXXOOOO####$$$$"
};
