/* XPM */
static char *result[] = {
/* columns rows colors chars-per-pixel */
"64 64 37 1 ",
"  c #3A3A4E",
". c #6B5A59",
"X c #796A62",
"o c #7AAB63",
"O c #938474",
"+ c #A1907E",
"@ c #8AC270",
"# c #90C874",
"$ c #69A6E2",
"% c #69A6E3",
"& c #68A7E4",
"* c #69A7E4",
"= c #68A7E5",
"- c #68A7E6",
"; c #68A8E6",
": c #68A8E7",
"> c #67A8E8",
", c #67A9E9",
"< c #67A9EA",
"1 c #66AAEB",
"2 c #66AAEC",
"3 c #66AAED",
"4 c #65ABEF",
"5 c #66AAEE",
"6 c #66ABEE",
"7 c #66ABEF",
"8 c #65ABF0",
"9 c #65ACF0",
"0 c #65ACF1",
"q c #64ACF2",
"w c #65ACF2",
"e c #64ACF3",
"r c #64ADF3",
"t c #64ADF4",
"y c #A49896",
"u c #BBAE91",
"i c #C8BD9B",
/* pixels */
"wweerrrrrrrrtttttttttttttttttttttttttttttttttttttttttttttttttttt",
"wweerrrrrrrrtttttttttttttttttttttttttttttttttttttttttttttttttttt",
"22335566774499wwrrtttttttttttttttttttttttttttttttttttttttttttttt",
"22335566774499wwrrtttttttttttttttttttttttttttttttttttttttttttttt",
"--;;::::>>>><<2244wwrrrrtttttttttttttttttttttttttttttttttttttttt",
"--;;::::>>>><<2244wwrrrrtttttttttttttttttttttttttttttttttttttttt",
"%%%%%%%%%%**==-->>113377880000wwqqeerrrrrrrrrrrrrrrrrrrrrreeeerr",
"%%%%%%%%%%**==-->>113377880000wwqqeerrrrrrrrrrrrrrrrrrrrrreeeerr",
"$$$$$$$$$$$$$$%%&&==;;::>>>>,,<<11223333333333333322222222222222",
"$$$$$$$$$$$$$$%%&&==;;::>>>>,,<<11223333333333333322222222222222",
"$$$$$$$$$$$$$$$$$$%%%%%%%%%%**&&================================",
"$$$$$$$$$$$$$$$$$$%%%%%%%%%%**&&================================",
"$$$$$$$$$$$$$$$$$$$$$$$$$$$$$$$$$$$$$$$$$$$$$$$$$$$$$$$$$$$$$$$$",
"$$$$$$$$$$$$$$$$$$$$$$$$$$$$$$$$$$$$$$$$$$$$$$$$$$$$$$$$$$$$$$$$",
"$$$$$$$$$$$$$$$$$$$$$$$$$$$$$$$$$$$$$$$$$$$$$$$$$$$$$$$$$$$$$$$$",
"$$$$$$$$$$$$$$$$$$$$$$$$$$$$$$$$$$$$$$$$$$$$$$$$$$$$$$$$$$$$$$$$",
"$$$$$$$$$$$$$$$$$$$$$$$$$$$$$$$$$$$$$$$$$$$$$$$$$$$$$$$$$$$$$$$$",
"$$$$$$$$$$$$$$$$$$$$$$$$$$$$$$$$$$$$$$$$$$$$$$$$$$$$$$$$$$$$$$$$",
"$$$$$$$$$$$$$$$$$$$$$$$$$$$$$$$$$$$$$$$$$$$$$$$$$$$$$$$$$$$$$$$$",
"$$$$$$$$$$$$$$$$$$$$$$$$$$$$$$$$$$$$$$$$$$$$$$$$$$$$$$$$$$$$$$$$",
"$$$$$$$$$$$$$$$$$$$$$$$$$$$$$$$$$$$$$$$$$$$$$$$$$$$$$$$$$$$$$$$$",
"$$$$$$$$$$$$$$$$$$$$$$$$$$$$$$$$$$$$$$$$$$$$$$$$$$$$$$$$$$$$$$$$",
"$$$$$$$$$$$$$$$$$$$$$$$$$$$$$$$$$$$$$$$$$$$$$$$$$$$$$$$$$$$$$$$$",
"$$$$$$$$$$$$$$$$$$$$$$$$$$$$$$$$$$$$$$$$$$$$$$$$$$$$$$$$$$$$$$$$",
"$$$$$$$$$$$$$$$$$$$$$$$$$$$$$$$$$$$$$$$$$$$$$$$$$$$$$$$$$$$$$$$$",
"$$$$$$$$$$$$$$$$$$$$$$$$$$$$$$$$$$$$$$$$$$$$$$$$$$$$$$$$$$$$$$$$",
"$$$$$$$$$$$$$$$$$$$$$$$$$$$$$$$$$$$$$$$$$$$$$$$$$$$$$$$$$$$$$$$$",
"$$$$$$$$$$$$$$$$$$$$$$$$$$$$$$$$$$$$$$$$$$$$$$$$$$$$$$$$$$$$$$$$",
"$$$$$$$$$$$$$$$$$$$$$$$$$$$$$$$$$$$$$$$$$$$$$$$$$$$$$$$$$$$$$$$$",
"$$$$$$$$$$$$$$$$$$$$$$$$$$$$$$$$$$$$$$$$$$$$$$$$$$$$$$$$$$$$$$$$",
"$$$$$$$$$$$$$$$$$$$$$$$$$$$$$$$$$$$$$$$$$$$$$$$$$$$$$$$$$$$$$$$$",
"$$$$$$$$$$$$$$$$$$$$$$$$$$$$$$$$$$$$$$$$$$$$$$$$$$$$$$$$$$$$$$$$",
"$$$$$$$$$$$$$$$$$$$$$$$$$$$$$$$$$$$$$$$$$$$$$$$$                ",
"$$$$$$$$$$$$$$$$$$$$$$$$$$$$$$$$$$$$$$$$$$$$$$$$                ",
"$$$$$$$$$$$$$$$$$$$$$$$$$$$$$$$$$$$$$$$$$$$$$$$$                ",
"$$$$$$$$$$$$$$$$$$$$$$$$$$$$$$$$$$$$$$$$$$$$$$$$                ",
"$$$$$$$$$$$$$$$$$$$$$$$$$$$$$$$$$$$$            ................",
"$$$$$$$$$$$$$$$$$$$$$$$$$$$$$$$$$$$$            ................",
"$$$$$$$$$$$$$$$$$$$$$$$$$$$$$$$$$$$$            ................",
"$$$$$$$$$$$$$$$$$$$$$$$$$$$$$$$$$$$$            ................",
"$$$$$$$$$$$$$$$$$$$$$$$$$$$$$$$$    ....OOOO++++++++OOOOXXXX....",
"$$$$$$$$$$$$$$$$$$$$$$$$$$$$$$$$    ....OOOO++++++++OOOOXXXX....",
"$$$$$$$$$$$$$$$$$$$$$$$$$$$$$$$$    ....OOOO++++++++OOOOXXXX....",
"$$$$$$$$$$$$$$$$$$$$$$$$$$$$$$$$    ....OOOO++++++++OOOOXXXX....",
"$$$$$$$$$$$$$$$$$$$$$$$$$$$$    XXXXXXXX++++iiiiiiiiuuuuXXXX....",
"$$$$$$$$$$$$$$$$$$$$$$$$$$$$    XXXXXXXX++++iiiiiiiiuuuuXXXX....",
"$$$$$$$$$$$$$$$$$$$$$$$$$$$$    XXXXXXXX++++iiiiiiiiuuuuXXXX....",
"$$$$$$$$$$$$$$$$$$$$$$$$$$$$    XXXXXXXX++++iiiiiiiiuuuuXXXX....",
"$$$$$$$$$$$$$$$$$$$$$$$$    XXXXXXXXXXXXXXXX++++iiiioooooooooooo",
"$$$$$$$$$$$$$$$$$$$$$$$$    XXXXXXXXXXXXXXXX++++iiiioooooooooooo",
"$$$$$$$$$$$$$$$$$$$$$$$$    XXXXXXXXXXXXXXXX++++iiiioooooooooooo",
"$$$$$$$$$$$$$$$$$$$$$$$$    XXXXXXXXXXXXXXXX++++iiiioooooooooooo",
"$$$$$$$$$$$$$$$$$$$$yyyy    OOOO++++++++OOOOXXXXoooo@@@@########",
"$$$$$$$$$$$$$$$$$$$$yyyy    OOOO++++++++OOOOXXXXoooo@@@@########",
"$$$$$$$$$$$$$$$$$$$$yyyy    OOOO++++++++OOOOXXXXoooo@@@@########",
"$$$$$$$$$$$$$$$$$$$$yyyy    OOOO++++++++OOOOXXXXoooo@@@@########",
"$$$$$$$$$$$$$$$$yyyy    XXXX++++iiiiuuuu++++oooo@@@@####@@@@@@@@",
"$$$$$$$$$$$$$$$$yyyy    XXXX++++iiiiuuuu++++oooo@@@@####@@@@@@@@",
"$$$$$$$$$$$$$$$$yyyy    XXXX++++iiiiuuuu++++oooo@@@@####@@@@@@@@",
"$$$$$$$$$$$$$$$$yyyy    XXXX++++iiiiuuuu++++oooo@@@@####@@@@@@@@",
"$$$$$$$$$$$$$$$$yyyy    ++++iiiiiiii++++++++oooo####@@@@########",
"$$$$$$$$$$$$$$$$yyyy    ++++iiiiiiii++++++++oooo####@@@@########",
"$$$$$$$$$$$$$$$$yyyy    ++++iiiiiiii++++++++oooo####@@@@########",
"$$$$$$$$$$$$$$$$yyyy    ++++iiiiiiii++++++++oooo####@@@@########"
};
