/* XPM */
static char *result[] = {
/* columns rows colors chars-per-pixel */
"64 64 9 1 ",
"  c #141B1B",
". c #3B3643",
"X c #5F7160",
"o c #D14B34",
"O c #8AC270",
"+ c #90C874",
"@ c #F1C471",
"# c #79B8CE",
"$ c #F2EAF1",
/* pixels */
"++++OOOO++++OOOO++++OOOO++++OOOO++++OOOO++++OOOO++++OOOO++++OOOO",
"++++OOOO++++OOOO++++OOOO++++OOOO++++OOOO++++OOOO++++OOOO++++OOOO",
"++++OOOO++++OOOO++++OOOO++++OOOO++++OOOO++++OOOO++++OOOO++++OOOO",
"++++OOOO++++OOOO++++OOOO++++OOOO++++OOOO++++OOOO++++OOOO++++OOOO",
"OOOO++++OOOO++++                                OOOO++++OOOO++++",
"OOOO++++OOOO++++                                OOOO++++OOOO++++",
"OOOO++++OOOO++++                                OOOO++++OOOO++++",
"OOOO++++OOOO++++                                OOOO++++OOOO++++",
"++++OOOO++++    ####$$$$$$$$$$$$$$$$$$$$$$$$####    OOOO++++OOOO",
"++++OOOO++++    ####$$$$$$$$$$$$$$$$$$$$$$$$####    OOOO++++OOOO",
"++++OOOO++++    ####$$$$$$$$$$$$$$$$$$$$$$$$####    OOOO++++OOOO",
"++++OOOO++++    ####$$$$$$$$$$$$$$$$$$$$$$$$####    OOOO++++OOOO",
"OOOO++++    ########$$$$$$$$$$$$$$$$$$$$$$$$########    OOOO++++",
"OOOO++++    ########$$$$$$$$$$$$$$$$$$$$$$$$########    OOOO++++",
"OOOO++++    ########$$$$$$$$$$$$$$$$$$$$$$$$########    OOOO++++",
"OOOO++++    ########$$$$$$$$$$$$$$$$$$$$$$$$########    OOOO++++",
"++++OOOO    ############$$$$$$$$$$$$$$$$############    ++++OOOO",
"++++OOOO    ############$$$$$$$$$$$$$$$$############    ++++OOOO",
"++++OOOO    ############$$$$$$$$$$$$$$$$############    ++++OOOO",
"++++OOOO    ############$$$$$$$$$$$$$$$$############    ++++OOOO",
"OOOO++++    ####@@@@########################@@@@####    OOOO++++",
"OOOO++++    ####@@@@########################@@@@####    OOOO++++",
"OOOO++++    ####@@@@########################@@@@####    OOOO++++",
"OOOO++++    ####@@@@########################@@@@####    OOOO++++",
"++++    XXXX####@@@@@@@@@@@@@@@@@@@@@@@@@@@@@@@@####XXXX    OOOO",
"++++    XXXX####@@@@@@@@@@@@@@@@@@@@@@@@@@@@@@@@####XXXX    OOOO",
"++++    XXXX####@@@@@@@@@@@@@@@@@@@@@@@@@@@@@@@@####XXXX    OOOO",
"++++    XXXX####@@@@@@@@@@@@@@@@@@@@@@@@@@@@@@@@####XXXX    OOOO",
"OOOO    ####XXXX####@@@@@@@@@@@@@@@@@@@@@@@@####XXXX####    ++++",
"OOOO    ####XXXX####@@@@@@@@@@@@@@@@@@@@@@@@####XXXX####    ++++",
"OOOO    ####XXXX####@@@@@@@@@@@@@@@@@@@@@@@@####XXXX####    ++++",
"OOOO    ####XXXX####@@@@@@@@@@@@@@@@@@@@@@@@####XXXX####    ++++",
"    XXXX########XXXX........................XXXX####XXXX####    ",
"    XXXX########XXXX........................XXXX####XXXX####    ",
"    XXXX########XXXX........................XXXX####XXXX####    ",
"    XXXX########XXXX........................XXXX####XXXX####    ",
"    ####XXXX########XXXXXXXXXXXXXXXXXXXXXXXX########XXXX####    ",
"    ####XXXX########XXXXXXXXXXXXXXXXXXXXXXXX########XXXX####    ",
"    ####XXXX########XXXXXXXXXXXXXXXXXXXXXXXX########XXXX####    ",
"    ####XXXX########XXXXXXXXXXXXXXXXXXXXXXXX########XXXX####    ",
"    ########XXXX................................XXXX########    ",
"    ########XXXX................................XXXX########    ",
"    ########XXXX................................XXXX########    ",
"    ########XXXX................................XXXX########    ",
"OOOO    ####XXXXXXXXXXXXXXXXXXXXXXXXXXXXXXXXXXXXXXXX####    ++++",
"OOOO    ####XXXXXXXXXXXXXXXXXXXXXXXXXXXXXXXXXXXXXXXX####    ++++",
"OOOO    ####XXXXXXXXXXXXXXXXXXXXXXXXXXXXXXXXXXXXXXXX####    ++++",
"OOOO    ####XXXXXXXXXXXXXXXXXXXXXXXXXXXXXXXXXXXXXXXX####    ++++",
"++++OOOO        ....XXXXXXXXXXXXXXXXXXXXXXXX....        ++++OOOO",
"++++OOOO        ....XXXXXXXXXXXXXXXXXXXXXXXX....        ++++OOOO",
"++++OOOO        ....XXXXXXXXXXXXXXXXXXXXXXXX....        ++++OOOO",
"++++OOOO        ....XXXXXXXXXXXXXXXXXXXXXXXX....        ++++OOOO",
"OOOO    ooooooooXXXX........................XXXXoooooooo    ++++",
"OOOO    ooooooooXXXX........................XXXXoooooooo    ++++",
"OOOO    ooooooooXXXX........................XXXXoooooooo    ++++",
"OOOO    ooooooooXXXX........................XXXXoooooooo    ++++",
"++++    oooooooo    ........................    oooooooo    OOOO",
"++++    oooooooo    ........................    oooooooo    OOOO",
"++++    oooooooo    ........................    oooooooo    OOOO",
"++++    oooooooo    ........................    oooooooo    OOOO",
"OOOO++++        XXXXXXXXXXXX        XXXXXXXXXXXX        OOOO++++",
"OOOO++++        XXXXXXXXXXXX        XXXXXXXXXXXX        OOOO++++",
"OOOO++++        XXXXXXXXXXXX        XXXXXXXXXXXX        OOOO++++",
"OOOO++++        XXXXXXXXXXXX        XXXXXXXXXXXX        OOOO++++"
};
