/* XPM */
static char *result[] = {
/* columns rows colors chars-per-pixel */
"64 64 10 1 ",
"  c #141B1B",
". c #3B3643",
"X c #5F7160",
"o c #D14B34",
"O c #EF914F",
"+ c #8AC270",
"@ c #90C874",
"# c #F1C471",
"$ c #79B8CE",
"% c #F2EAF1",
/* pixels */
"@@@@++++@@@@++++@@@@++++@@@@++++@@@@++++@@@@++++@@@@++++@@@@++++",
"@@@@++++@@@@++++@@@@++++@@@@++++@@@@++++@@@@++++@@@@++++@@@@++++",
"@@@@++++@@@@++++@@@@++++@@@@++++@@@@++++@@@@++++@@@@++++@@@@++++",
"@@@@++++@@@@++++@@@@++++@@@@++++@@@@++++@@@@++++@@@@++++@@@@++++",
"++++@@@@++++@@@@                                ++++@@@@++++@@@@",
"++++@@@@++++@@@@                                ++++@@@@++++@@@@",
"++++@@@@++++@@@@                                ++++@@@@++++@@@@",
"++++@@@@++++@@@@                                ++++@@@@++++@@@@",
"@@@@++++        %%%%%%%%%%%%%%%%%%%%%%%%$$$$$$$$    ++++@@@@++++",
"@@@@++++        %%%%%%%%%%%%%%%%%%%%%%%%$$$$$$$$    ++++@@@@++++",
"@@@@++++        %%%%%%%%%%%%%%%%%%%%%%%%$$$$$$$$    ++++@@@@++++",
"@@@@++++        %%%%%%%%%%%%%%%%%%%%%%%%$$$$$$$$    ++++@@@@++++",
"++++    ####$$$$%%%%%%%%%%%%%%%%%%%%%%%%$$$$$$$$$$$$    ++++@@@@",
"++++    ####$$$$%%%%%%%%%%%%%%%%%%%%%%%%$$$$$$$$$$$$    ++++@@@@",
"++++    ####$$$$%%%%%%%%%%%%%%%%%%%%%%%%$$$$$$$$$$$$    ++++@@@@",
"++++    ####$$$$%%%%%%%%%%%%%%%%%%%%%%%%$$$$$$$$$$$$    ++++@@@@",
"@@@@    ####$$$$$$$$####%%%%%%%%%%%%$$$$$$$$$$$$$$$$    @@@@++++",
"@@@@    ####$$$$$$$$####%%%%%%%%%%%%$$$$$$$$$$$$$$$$    @@@@++++",
"@@@@    ####$$$$$$$$####%%%%%%%%%%%%$$$$$$$$$$$$$$$$    @@@@++++",
"@@@@    ####$$$$$$$$####%%%%%%%%%%%%$$$$$$$$$$$$$$$$    @@@@++++",
"++++    ################$$$$$$$$$$$$$$$$$$$$$$$$$$$$    ++++@@@@",
"++++    ################$$$$$$$$$$$$$$$$$$$$$$$$$$$$    ++++@@@@",
"++++    ################$$$$$$$$$$$$$$$$$$$$$$$$$$$$    ++++@@@@",
"++++    ################$$$$$$$$$$$$$$$$$$$$$$$$$$$$    ++++@@@@",
"@@@@        ############$$$$$$$$$$$$$$$$$$$$$$$$XXXX$$$$    ++++",
"@@@@        ############$$$$$$$$$$$$$$$$$$$$$$$$XXXX$$$$    ++++",
"@@@@        ############$$$$$$$$$$$$$$$$$$$$$$$$XXXX$$$$    ++++",
"@@@@        ############$$$$$$$$$$$$$$$$$$$$$$$$XXXX$$$$    ++++",
"++++@@@@            XXXXXXXX$$$$$$$$$$$$$$$$XXXX$$$$XXXX    @@@@",
"++++@@@@            XXXXXXXX$$$$$$$$$$$$$$$$XXXX$$$$XXXX    @@@@",
"++++@@@@            XXXXXXXX$$$$$$$$$$$$$$$$XXXX$$$$XXXX    @@@@",
"++++@@@@            XXXXXXXX$$$$$$$$$$$$$$$$XXXX$$$$XXXX    @@@@",
"@@@@    $$$$                XXXXXXXXXXXXXXXX$$$$$$$$XXXX    ++++",
"@@@@    $$$$                XXXXXXXXXXXXXXXX$$$$$$$$XXXX    ++++",
"@@@@    $$$$                XXXXXXXXXXXXXXXX$$$$$$$$XXXX    ++++",
"@@@@    $$$$                XXXXXXXXXXXXXXXX$$$$$$$$XXXX    ++++",
"++++    $$$$$$$$            $$$$$$$$$$$$$$$$$$$$XXXX$$$$    @@@@",
"++++    $$$$$$$$            $$$$$$$$$$$$$$$$$$$$XXXX$$$$    @@@@",
"++++    $$$$$$$$            $$$$$$$$$$$$$$$$$$$$XXXX$$$$    @@@@",
"++++    $$$$$$$$            $$$$$$$$$$$$$$$$$$$$XXXX$$$$    @@@@",
"@@@@++++    XXXXXXXXXXXXXXXXXXXXXXXXXXXXXXXXXXXX$$$$$$$$    ++++",
"@@@@++++    XXXXXXXXXXXXXXXXXXXXXXXXXXXXXXXXXXXX$$$$$$$$    ++++",
"@@@@++++    XXXXXXXXXXXXXXXXXXXXXXXXXXXXXXXXXXXX$$$$$$$$    ++++",
"@@@@++++    XXXXXXXXXXXXXXXXXXXXXXXXXXXXXXXXXXXX$$$$$$$$    ++++",
"++++@@@@++++            ....$$$$$$$$$$$$$$$$$$$$$$$$    ++++@@@@",
"++++@@@@++++            ....$$$$$$$$$$$$$$$$$$$$$$$$    ++++@@@@",
"++++@@@@++++            ....$$$$$$$$$$$$$$$$$$$$$$$$    ++++@@@@",
"++++@@@@++++            ....$$$$$$$$$$$$$$$$$$$$$$$$    ++++@@@@",
"@@@@++++@@@@++++    ............................    ++++@@@@++++",
"@@@@++++@@@@++++    ............................    ++++@@@@++++",
"@@@@++++@@@@++++    ............................    ++++@@@@++++",
"@@@@++++@@@@++++    ............................    ++++@@@@++++",
"++++@@@@++++@@@@    $$$$$$$$    oooooooo    $$$$    @@@@++++@@@@",
"++++@@@@++++@@@@    $$$$$$$$    oooooooo    $$$$    @@@@++++@@@@",
"++++@@@@++++@@@@    $$$$$$$$    oooooooo    $$$$    @@@@++++@@@@",
"++++@@@@++++@@@@    $$$$$$$$    oooooooo    $$$$    @@@@++++@@@@",
"@@@@++++@@@@++++    ....XXXX    OOOOOOOO    ....    ++++@@@@++++",
"@@@@++++@@@@++++    ....XXXX    OOOOOOOO    ....    ++++@@@@++++",
"@@@@++++@@@@++++    ....XXXX    OOOOOOOO    ....    ++++@@@@++++",
"@@@@++++@@@@++++    ....XXXX    OOOOOOOO    ....    ++++@@@@++++",
"++++@@@@++++@@@@++++    XXXXXXXX        XXXX    ++++@@@@++++@@@@",
"++++@@@@++++@@@@++++    XXXXXXXX        XXXX    ++++@@@@++++@@@@",
"++++@@@@++++@@@@++++    XXXXXXXX        XXXX    ++++@@@@++++@@@@",
"++++@@@@++++@@@@++++    XXXXXXXX        XXXX    ++++@@@@++++@@@@"
};
