/* XPM */
static char *result[] = {
/* columns rows colors chars-per-pixel */
"64 64 14 1 ",
"  c #3A3A4E",
". c #5B4F50",
"X c #6B5A59",
"o c #796A62",
"O c #6FAE5B",
"+ c #7AAB63",
"@ c #938474",
"# c #A1907E",
"$ c #8AC270",
"% c #90C874",
"& c #69A6E2",
"* c #A49896",
"= c #BBAE91",
"- c #C8BD9B",
/* pixels */
"%%$$$$%%%%++++########@@@@oooooooooooooooooooo    &&&&&&&&&&&&&&",
"%%$$$$%%%%++++########@@@@oooooooooooooooooooo    &&&&&&&&&&&&&&",
"%%$$$$%%%%++++########@@@@oooooooooooooooooooo    &&&&&&&&&&&&&&",
"%%$$$$%%%%++++########@@@@oooooooooooooooooooo    &&&&&&&&&&&&&&",
"$$%%%%$$$$++++####@@@@oooooooooooooooooooooooo    &&&&&&&&&&&&&&",
"$$%%%%$$$$++++####@@@@oooooooooooooooooooooooo    &&&&&&&&&&&&&&",
"$$%%%%$$$$++++####@@@@oooooooooooooooooooooooo    &&&&&&&&&&&&&&",
"$$%%%%$$$$++++####@@@@oooooooooooooooooooooooo    &&&&&&&&&&&&&&",
"++++++++++XXXX####ooooooooooooooooXXXXoooooooo....&&&&&&&&&&&&&&",
"++++++++++XXXX####ooooooooooooooooXXXXoooooooo....&&&&&&&&&&&&&&",
"++++++++++XXXX####ooooooooooooooooXXXXoooooooo....&&&&&&&&&&&&&&",
"++++++++++XXXX####ooooooooooooooooXXXXoooooooo....&&&&&&&&&&&&&&",
"XXXXXXXXXXoooooooo@@@@====@@@@ooooooooXXXX    ****&&&&&&&&&&&&&&",
"XXXXXXXXXXoooooooo@@@@====@@@@ooooooooXXXX    ****&&&&&&&&&&&&&&",
"XXXXXXXXXXoooooooo@@@@====@@@@ooooooooXXXX    ****&&&&&&&&&&&&&&",
"XXXXXXXXXXoooooooo@@@@====@@@@ooooooooXXXX    ****&&&&&&&&&&&&&&",
"oooooooooooooo@@@@====----@@@@oooooooooooo....    &&&&&&&&&&&&&&",
"oooooooooooooo@@@@====----@@@@oooooooooooo....    &&&&&&&&&&&&&&",
"oooooooooooooo@@@@====----@@@@oooooooooooo....    &&&&&&&&&&&&&&",
"oooooooooooooo@@@@====----@@@@oooooooooooo....    &&&&&&&&&&&&&&",
"oooooooooooooo====----####@@@@oooo@@@@ooooXXXX    &&&&&&&&&&&&&&",
"oooooooooooooo====----####@@@@oooo@@@@ooooXXXX    &&&&&&&&&&&&&&",
"oooooooooooooo====----####@@@@oooo@@@@ooooXXXX    &&&&&&&&&&&&&&",
"oooooooooooooo====----####@@@@oooo@@@@ooooXXXX    &&&&&&&&&&&&&&",
"oooooo@@@@oooo@@@@####@@@@oooo########ooooXXXX....    &&&&&&&&&&",
"oooooo@@@@oooo@@@@####@@@@oooo########ooooXXXX....    &&&&&&&&&&",
"oooooo@@@@oooo@@@@####@@@@oooo########ooooXXXX....    &&&&&&&&&&",
"oooooo@@@@oooo@@@@####@@@@oooo########ooooXXXX....    &&&&&&&&&&",
"oo@@@@####@@@@oooooooooooo@@@@########@@@@oooo....    &&&&&&&&&&",
"oo@@@@####@@@@oooooooooooo@@@@########@@@@oooo....    &&&&&&&&&&",
"oo@@@@####@@@@oooooooooooo@@@@########@@@@oooo....    &&&&&&&&&&",
"oo@@@@####@@@@oooooooooooo@@@@########@@@@oooo....    &&&&&&&&&&",
"oo@@@@----####@@@@XXXXoooooooooooo@@@@@@@@ooooXXXX    &&&&&&&&&&",
"oo@@@@----####@@@@XXXXoooooooooooo@@@@@@@@ooooXXXX    &&&&&&&&&&",
"oo@@@@----####@@@@XXXXoooooooooooo@@@@@@@@ooooXXXX    &&&&&&&&&&",
"oo@@@@----####@@@@XXXXoooooooooooo@@@@@@@@ooooXXXX    &&&&&&&&&&",
"oo@@@@====----####ooooXXXXooooooooOOOOooooOOOOXXXX    &&&&&&&&&&",
"oo@@@@====----####ooooXXXXooooooooOOOOooooOOOOXXXX    &&&&&&&&&&",
"oo@@@@====----####ooooXXXXooooooooOOOOooooOOOOXXXX    &&&&&&&&&&",
"oo@@@@====----####ooooXXXXooooooooOOOOooooOOOOXXXX    &&&&&&&&&&",
"XXoooo############ooooXXXXXXXXooooOOOOXXXXOOOO....    &&&&&&&&&&",
"XXoooo############ooooXXXXXXXXooooOOOOXXXXOOOO....    &&&&&&&&&&",
"XXoooo############ooooXXXXXXXXooooOOOOXXXXOOOO....    &&&&&&&&&&",
"XXoooo############ooooXXXXXXXXooooOOOOXXXXOOOO....    &&&&&&&&&&",
"XXoooo@@@@########ooooooooXXXXXXXXOOOOXXXXOOOOOOOO****&&&&&&&&&&",
"XXoooo@@@@########ooooooooXXXXXXXXOOOOXXXXOOOOOOOO****&&&&&&&&&&",
"XXoooo@@@@########ooooooooXXXXXXXXOOOOXXXXOOOOOOOO****&&&&&&&&&&",
"XXoooo@@@@########ooooooooXXXXXXXXOOOOXXXXOOOOOOOO****&&&&&&&&&&",
"XXooooOOOOooooooooooooXXXXOOOOOOOO        OOOOOOOO&&&&&&&&&&&&&&",
"XXooooOOOOooooooooooooXXXXOOOOOOOO        OOOOOOOO&&&&&&&&&&&&&&",
"XXooooOOOOooooooooooooXXXXOOOOOOOO        OOOOOOOO&&&&&&&&&&&&&&",
"XXooooOOOOooooooooooooXXXXOOOOOOOO        OOOOOOOO&&&&&&&&&&&&&&",
"  ....OOOOXXXXXXXXXXXX....OOOOOOOO********&&&&&&&&&&&&&&&&&&&&&&",
"  ....OOOOXXXXXXXXXXXX....OOOOOOOO********&&&&&&&&&&&&&&&&&&&&&&",
"  ....OOOOXXXXXXXXXXXX....OOOOOOOO********&&&&&&&&&&&&&&&&&&&&&&",
"  ....OOOOXXXXXXXXXXXX....OOOOOOOO********&&&&&&&&&&&&&&&&&&&&&&",
"**OOOO    OOOO        OOOO****&&&&&&&&&&&&&&&&&&&&&&&&&&&&&&&&&&",
"**OOOO    OOOO        OOOO****&&&&&&&&&&&&&&&&&&&&&&&&&&&&&&&&&&",
"**OOOO    OOOO        OOOO****&&&&&&&&&&&&&&&&&&&&&&&&&&&&&&&&&&",
"**OOOO    OOOO        OOOO****&&&&&&&&&&&&&&&&&&&&&&&&&&&&&&&&&&",
"&&&&&&&&&&&&&&&&&&&&&&&&&&&&&&&&&&&&&&&&&&&&&&&&&&&&&&&&&&&&&&&&",
"&&&&&&&&&&&&&&&&&&&&&&&&&&&&&&&&&&&&&&&&&&&&&&&&&&&&&&&&&&&&&&&&",
"&&&&&&&&&&&&&&&&&&&&&&&&&&&&&&&&&&&&&&&&&&&&&&&&&&&&&&&&&&&&&&&&",
"&&&&&&&&&&&&&&&&&&&&&&&&&&&&&&&&&&&&&&&&&&&&&&&&&&&&&&&&&&&&&&&&"
};
