/* XPM */
static char *result[] = {
/* columns rows colors chars-per-pixel */
"64 64 14 1 ",
"  c #3A3A4E",
". c #5B4F50",
"X c #6B5A59",
"o c #796A62",
"O c #6FAE5B",
"+ c #7AAB63",
"@ c #938474",
"# c #A1907E",
"$ c #8AC270",
"% c #90C874",
"& c #69A6E2",
"* c #A49896",
"= c #BBAE91",
"- c #C8BD9B",
/* pixels */
"%%%%$$$$++++################OOOOOOOO    ****&&&&&&&&&&&&&&&&&&&&",
"%%%%$$$$++++################OOOOOOOO    ****&&&&&&&&&&&&&&&&&&&&",
"%%%%$$$$++++################OOOOOOOO    ****&&&&&&&&&&&&&&&&&&&&",
"%%%%$$$$++++################OOOOOOOO    ****&&&&&&&&&&&&&&&&&&&&",
"$$$$%%%%++++####------------####@@@@....    ****&&&&&&&&&&&&&&&&",
"$$$$%%%%++++####------------####@@@@....    ****&&&&&&&&&&&&&&&&",
"$$$$%%%%++++####------------####@@@@....    ****&&&&&&&&&&&&&&&&",
"$$$$%%%%++++####------------####@@@@....    ****&&&&&&&&&&&&&&&&",
"%%%%$$$$++++####------------====####oooo....    &&&&&&&&&&&&&&&&",
"%%%%$$$$++++####------------====####oooo....    &&&&&&&&&&&&&&&&",
"%%%%$$$$++++####------------====####oooo....    &&&&&&&&&&&&&&&&",
"%%%%$$$$++++####------------====####oooo....    &&&&&&&&&&&&&&&&",
"$$$$++++XXXX####========########@@@@oooooooo    ****&&&&&&&&&&&&",
"$$$$++++XXXX####========########@@@@oooooooo    ****&&&&&&&&&&&&",
"$$$$++++XXXX####========########@@@@oooooooo    ****&&&&&&&&&&&&",
"$$$$++++XXXX####========########@@@@oooooooo    ****&&&&&&&&&&&&",
"%%%%++++oooo############@@@@####ooooooooooooXXXX    &&&&&&&&&&&&",
"%%%%++++oooo############@@@@####ooooooooooooXXXX    &&&&&&&&&&&&",
"%%%%++++oooo############@@@@####ooooooooooooXXXX    &&&&&&&&&&&&",
"%%%%++++oooo############@@@@####ooooooooooooXXXX    &&&&&&&&&&&&",
"$$$$++++@@@@####@@@@ooooooooooooooooooooooooXXXX    &&&&&&&&&&&&",
"$$$$++++@@@@####@@@@ooooooooooooooooooooooooXXXX    &&&&&&&&&&&&",
"$$$$++++@@@@####@@@@ooooooooooooooooooooooooXXXX    &&&&&&&&&&&&",
"$$$$++++@@@@####@@@@ooooooooooooooooooooooooXXXX    &&&&&&&&&&&&",
"%%%%$$$$++++ooooooooooooooooooooooooooooooooXXXX    &&&&&&&&&&&&",
"%%%%$$$$++++ooooooooooooooooooooooooooooooooXXXX    &&&&&&&&&&&&",
"%%%%$$$$++++ooooooooooooooooooooooooooooooooXXXX    &&&&&&&&&&&&",
"%%%%$$$$++++ooooooooooooooooooooooooooooooooXXXX    &&&&&&&&&&&&",
"$$$$%%%%$$$$++++XXXXXXXXXXXXooooooooXXXXoooo....    &&&&&&&&&&&&",
"$$$$%%%%$$$$++++XXXXXXXXXXXXooooooooXXXXoooo....    &&&&&&&&&&&&",
"$$$$%%%%$$$$++++XXXXXXXXXXXXooooooooXXXXoooo....    &&&&&&&&&&&&",
"$$$$%%%%$$$$++++XXXXXXXXXXXXooooooooXXXXoooo....    &&&&&&&&&&&&",
"%%%%$$$$%%%%++++@@@@ooooXXXXXXXXXXXXXXXX....    ****&&&&&&&&&&&&",
"%%%%$$$$%%%%++++@@@@ooooXXXXXXXXXXXXXXXX....    ****&&&&&&&&&&&&",
"%%%%$$$$%%%%++++@@@@ooooXXXXXXXXXXXXXXXX....    ****&&&&&&&&&&&&",
"%%%%$$$$%%%%++++@@@@ooooXXXXXXXXXXXXXXXX....    ****&&&&&&&&&&&&",
"%%%%%%%%$$$$++++####@@@@ooooXXXX........    ****&&&&&&&&&&&&&&&&",
"%%%%%%%%$$$$++++####@@@@ooooXXXX........    ****&&&&&&&&&&&&&&&&",
"%%%%%%%%$$$$++++####@@@@ooooXXXX........    ****&&&&&&&&&&&&&&&&",
"%%%%%%%%$$$$++++####@@@@ooooXXXX........    ****&&&&&&&&&&&&&&&&",
"$$$$%%%%%%%%++++----====####ooooXXXX    ****&&&&&&&&&&&&&&&&&&&&",
"$$$$%%%%%%%%++++----====####ooooXXXX    ****&&&&&&&&&&&&&&&&&&&&",
"$$$$%%%%%%%%++++----====####ooooXXXX    ****&&&&&&&&&&&&&&&&&&&&",
"$$$$%%%%%%%%++++----====####ooooXXXX    ****&&&&&&&&&&&&&&&&&&&&",
"%%%%$$$$++++XXXX--------####oooooooo....****&&&&&&&&&&&&&&&&&&&&",
"%%%%$$$$++++XXXX--------####oooooooo....****&&&&&&&&&&&&&&&&&&&&",
"%%%%$$$$++++XXXX--------####oooooooo....****&&&&&&&&&&&&&&&&&&&&",
"%%%%$$$$++++XXXX--------####oooooooo....****&&&&&&&&&&&&&&&&&&&&",
"$$$$%%%%++++oooo--------====ooooooooXXXX....&&&&&&&&&&&&&&&&&&&&",
"$$$$%%%%++++oooo--------====ooooooooXXXX....&&&&&&&&&&&&&&&&&&&&",
"$$$$%%%%++++oooo--------====ooooooooXXXX....&&&&&&&&&&&&&&&&&&&&",
"$$$$%%%%++++oooo--------====ooooooooXXXX....&&&&&&&&&&&&&&&&&&&&",
"%%%%++++XXXX####----====####ooooooooXXXX    &&&&&&&&&&&&&&&&&&&&",
"%%%%++++XXXX####----====####ooooooooXXXX    &&&&&&&&&&&&&&&&&&&&",
"%%%%++++XXXX####----====####ooooooooXXXX    &&&&&&&&&&&&&&&&&&&&",
"%%%%++++XXXX####----====####ooooooooXXXX    &&&&&&&&&&&&&&&&&&&&",
"$$$$++++XXXX########@@@@oooooooooooooooo    ****&&&&&&&&&&&&&&&&",
"$$$$++++XXXX########@@@@oooooooooooooooo    ****&&&&&&&&&&&&&&&&",
"$$$$++++XXXX########@@@@oooooooooooooooo    ****&&&&&&&&&&&&&&&&",
"$$$$++++XXXX########@@@@oooooooooooooooo    ****&&&&&&&&&&&&&&&&",
"%%%%$$$$++++################@@@@oooooooooooo....&&&&&&&&&&&&&&&&",
"%%%%$$$$++++################@@@@oooooooooooo....&&&&&&&&&&&&&&&&",
"%%%%$$$$++++################@@@@oooooooooooo....&&&&&&&&&&&&&&&&",
"%%%%$$$$++++################@@@@oooooooooooo....&&&&&&&&&&&&&&&&"
};
