/* XPM */
static char *result[] = {
/* columns rows colors chars-per-pixel */
"64 64 12 1 ",
"  c #3A3A4E",
". c #6B5A59",
"X c #796A62",
"o c #7AAB63",
"O c #938474",
"+ c #A1907E",
"@ c #8AC270",
"# c #90C874",
"$ c #69A6E2",
"% c #A49896",
"& c #BBAE91",
"* c #C8BD9B",
/* pixels */
"$$$$$$$$$$$$$$$$$$$$$$$$$$$$$$$$$$$$$$$$$$$$$$$$$$$$$$$$$$$$$$$$",
"$$$$$$$$$$$$$$$$$$$$$$$$$$$$$$$$$$$$$$$$$$$$$$$$$$$$$$$$$$$$$$$$",
"$$$$$$$$$$$$$$$$$$$$$$$$$$$$$$$$$$$$$$$$$$$$$$$$$$$$$$$$$$$$$$$$",
"$$$$$$$$$$$$$$$$$$$$$$$$$$$$$$$$$$$$$$$$$$$$$$$$$$$$$$$$$$$$$$$$",
"$$$$$$$$$$$$$$$$$$$$$$$$$$$$$$$$$$$$$$$$$$$$$$$$$$$$$$$$$$$$$$$$",
"$$$$$$$$$$$$$$$$$$$$$$$$$$$$$$$$$$$$$$$$$$$$$$$$$$$$$$$$$$$$$$$$",
"$$$$$$$$$$$$$$$$$$$$$$$$$$$$$$$$$$$$$$$$$$$$$$$$$$$$$$$$$$$$$$$$",
"$$$$$$$$$$$$$$$$$$$$$$$$$$$$$$$$$$$$$$$$$$$$$$$$$$$$$$$$$$$$$$$$",
"$$$$$$$$$$$$$$$$$$$$$$$$$$$$$$$$$$$$$$$$$$$$$$$$$$$$$$$$$$$$$$$$",
"$$$$$$$$$$$$$$$$$$$$$$$$$$$$$$$$$$$$$$$$$$$$$$$$$$$$$$$$$$$$$$$$",
"$$$$$$$$$$$$$$$$$$$$$$$$$$$$$$$$$$$$$$$$$$$$$$$$$$$$$$$$$$$$$$$$",
"$$$$$$$$$$$$$$$$$$$$$$$$$$$$$$$$$$$$$$$$$$$$$$$$$$$$$$$$$$$$$$$$",
"$$$$$$$$$$$$$$$$$$$$$$$$$$$$$$$$$$$$$$$$$$$$$$$$$$$$$$$$$$$$$$$$",
"$$$$$$$$$$$$$$$$$$$$$$$$$$$$$$$$$$$$$$$$$$$$$$$$$$$$$$$$$$$$$$$$",
"$$$$$$$$$$$$$$$$$$$$$$$$$$$$$$$$$$$$$$$$$$$$$$$$$$$$$$$$$$$$$$$$",
"$$$$$$$$$$$$$$$$$$$$$$$$$$$$$$$$$$$$$$$$$$$$$$$$$$$$$$$$$$$$$$$$",
"$$$$$$$$$$$$$$$$$$$$$$$$$$$$$$$$$$$$$$$$$$$$$$$$$$$$$$$$$$$$$$$$",
"$$$$$$$$$$$$$$$$$$$$$$$$$$$$$$$$$$$$$$$$$$$$$$$$$$$$$$$$$$$$$$$$",
"$$$$$$$$$$$$$$$$$$$$$$$$$$$$$$$$$$$$$$$$$$$$$$$$$$$$$$$$$$$$$$$$",
"$$$$$$$$$$$$$$$$$$$$$$$$$$$$$$$$$$$$$$$$$$$$$$$$$$$$$$$$$$$$$$$$",
"$$$$$$$$$$$$$$$$$$$$$$$$$$$$$$$$$$$$$$$$$$$$$$$$$$$$$$$$$$$$$$$$",
"$$$$$$$$$$$$$$$$$$$$$$$$$$$$$$$$$$$$$$$$$$$$$$$$$$$$$$$$$$$$$$$$",
"$$$$$$$$$$$$$$$$$$$$$$$$$$$$$$$$$$$$$$$$$$$$$$$$$$$$$$$$$$$$$$$$",
"$$$$$$$$$$$$$$$$$$$$$$$$$$$$$$$$$$$$$$$$$$$$$$$$$$$$$$$$$$$$$$$$",
"$$$$$$$$$$$$$$$$$$$$$$$$$$$$$$$$$$$$$$$$$$$$$$$$$$$$$$$$$$$$$$$$",
"$$$$$$$$$$$$$$$$$$$$$$$$$$$$$$$$$$$$$$$$$$$$$$$$$$$$$$$$$$$$$$$$",
"$$$$$$$$$$$$$$$$$$$$$$$$$$$$$$$$$$$$$$$$$$$$$$$$$$$$$$$$$$$$$$$$",
"$$$$$$$$$$$$$$$$$$$$$$$$$$$$$$$$$$$$$$$$$$$$$$$$$$$$$$$$$$$$$$$$",
"$$$$$$$$$$$$$$$$$$$$$$$$$$$$$$$$$$$$$$$$$$$$$$$$$$$$$$$$$$$$$$$$",
"$$$$$$$$$$$$$$$$$$$$$$$$$$$$$$$$$$$$$$$$$$$$$$$$$$$$$$$$$$$$$$$$",
"$$$$$$$$$$$$$$$$$$$$$$$$$$$$$$$$$$$$$$$$$$$$$$$$$$$$$$$$$$$$$$$$",
"$$$$$$$$$$$$$$$$$$$$$$$$$$$$$$$$$$$$$$$$$$$$$$$$$$$$$$$$$$$$$$$$",
"              $$$$$$$$$$$$$$$$$$$$$$$$$$$$$$$$$$$$$$$$$$$$$$$$$$",
"              $$$$$$$$$$$$$$$$$$$$$$$$$$$$$$$$$$$$$$$$$$$$$$$$$$",
"              $$$$$$$$$$$$$$$$$$$$$$$$$$$$$$$$$$$$$$$$$$$$$$$$$$",
"              $$$$$$$$$$$$$$$$$$$$$$$$$$$$$$$$$$$$$$$$$$$$$$$$$$",
"..............            $$$$$$$$$$$$$$$$$$$$$$$$$$$$$$$$$$$$$$",
"..............            $$$$$$$$$$$$$$$$$$$$$$$$$$$$$$$$$$$$$$",
"..............            $$$$$$$$$$$$$$$$$$$$$$$$$$$$$$$$$$$$$$",
"..............            $$$$$$$$$$$$$$$$$$$$$$$$$$$$$$$$$$$$$$",
"..XXXXOOOO++++++++OOOO....    $$$$$$$$$$$$$$$$$$$$$$$$$$$$$$$$$$",
"..XXXXOOOO++++++++OOOO....    $$$$$$$$$$$$$$$$$$$$$$$$$$$$$$$$$$",
"..XXXXOOOO++++++++OOOO....    $$$$$$$$$$$$$$$$$$$$$$$$$$$$$$$$$$",
"..XXXXOOOO++++++++OOOO....    $$$$$$$$$$$$$$$$$$$$$$$$$$$$$$$$$$",
"..XXXX&&&&********++++XXXXXXXX    $$$$$$$$$$$$$$$$$$$$$$$$$$$$$$",
"..XXXX&&&&********++++XXXXXXXX    $$$$$$$$$$$$$$$$$$$$$$$$$$$$$$",
"..XXXX&&&&********++++XXXXXXXX    $$$$$$$$$$$$$$$$$$$$$$$$$$$$$$",
"..XXXX&&&&********++++XXXXXXXX    $$$$$$$$$$$$$$$$$$$$$$$$$$$$$$",
"XXoooooooo****++++XXXXXXXXXXXXXXXX    $$$$$$$$$$$$$$$$$$$$$$$$$$",
"XXoooooooo****++++XXXXXXXXXXXXXXXX    $$$$$$$$$$$$$$$$$$$$$$$$$$",
"XXoooooooo****++++XXXXXXXXXXXXXXXX    $$$$$$$$$$$$$$$$$$$$$$$$$$",
"XXoooooooo****++++XXXXXXXXXXXXXXXX    $$$$$$$$$$$$$$$$$$$$$$$$$$",
"oo####@@@@ooooXXXXOOOO++++++++OOOO    %%%%$$$$$$$$$$$$$$$$$$$$$$",
"oo####@@@@ooooXXXXOOOO++++++++OOOO    %%%%$$$$$$$$$$$$$$$$$$$$$$",
"oo####@@@@ooooXXXXOOOO++++++++OOOO    %%%%$$$$$$$$$$$$$$$$$$$$$$",
"oo####@@@@ooooXXXXOOOO++++++++OOOO    %%%%$$$$$$$$$$$$$$$$$$$$$$",
"##@@@@####@@@@oooo++++&&&&****++++XXXX    %%%%$$$$$$$$$$$$$$$$$$",
"##@@@@####@@@@oooo++++&&&&****++++XXXX    %%%%$$$$$$$$$$$$$$$$$$",
"##@@@@####@@@@oooo++++&&&&****++++XXXX    %%%%$$$$$$$$$$$$$$$$$$",
"##@@@@####@@@@oooo++++&&&&****++++XXXX    %%%%$$$$$$$$$$$$$$$$$$",
"@@####@@@@####oooo++++++++********++++    %%%%$$$$$$$$$$$$$$$$$$",
"@@####@@@@####oooo++++++++********++++    %%%%$$$$$$$$$$$$$$$$$$",
"@@####@@@@####oooo++++++++********++++    %%%%$$$$$$$$$$$$$$$$$$",
"@@####@@@@####oooo++++++++********++++    %%%%$$$$$$$$$$$$$$$$$$"
};
