/* XPM */
static char *result[] = {
/* columns rows colors chars-per-pixel */
"64 64 11 1 ",
"  c #3A3A4E",
". c #6B5A59",
"X c #796A62",
"o c #7AAB63",
"O c #938474",
"+ c #A1907E",
"@ c #8AC270",
"# c #90C874",
"$ c #69A6E2",
"% c #BBAE91",
"& c #C8BD9B",
/* pixels */
"$$$$$$$$$$$$$$$$$$$$$$$$$$$$$$$$$$$$$$$$$$$$$$$$$$$$$$$$$$$$$$$$",
"$$$$$$$$$$$$$$$$$$$$$$$$$$$$$$$$$$$$$$$$$$$$$$$$$$$$$$$$$$$$$$$$",
"$$$$$$$$$$$$$$$$$$$$$$$$$$$$$$$$$$$$$$$$$$$$$$$$$$$$$$$$$$$$$$$$",
"$$$$$$$$$$$$$$$$$$$$$$$$$$$$$$$$$$$$$$$$$$$$$$$$$$$$$$$$$$$$$$$$",
"$$$$$$$$$$$$$$$$$$$$$$$$$$$$$$$$$$$$$$$$$$$$$$$$$$$$$$$$$$$$$$$$",
"$$$$$$$$$$$$$$$$$$$$$$$$$$$$$$$$$$$$$$$$$$$$$$$$$$$$$$$$$$$$$$$$",
"$$$$$$$$$$$$$$$$$$$$$$$$$$$$$$$$$$$$$$$$$$$$$$$$$$$$$$$$$$$$$$$$",
"$$$$$$$$$$$$$$$$$$$$$$$$$$$$$$$$$$$$$$$$$$$$$$$$$$$$$$$$$$$$$$$$",
"$$$$$$$$$$$$$$$$$$$$$$$$$$$$$$$$$$$$$$$$$$$$$$$$$$$$$$$$$$$$$$$$",
"$$$$$$$$$$$$$$$$$$$$$$$$$$$$$$$$$$$$$$$$$$$$$$$$$$$$$$$$$$$$$$$$",
"$$$$$$$$$$$$$$$$$$$$$$$$$$$$$$$$$$$$$$$$$$$$$$$$$$$$$$$$$$$$$$$$",
"$$$$$$$$$$$$$$$$$$$$$$$$$$$$$$$$$$$$$$$$$$$$$$$$$$$$$$$$$$$$$$$$",
"$$$$$$$$$$$$$$$$$$$$$$$$$$$$$$$$$$$$$$$$$$$$$$$$$$$$$$$$$$$$$$$$",
"$$$$$$$$$$$$$$$$$$$$$$$$$$$$$$$$$$$$$$$$$$$$$$$$$$$$$$$$$$$$$$$$",
"$$$$$$$$$$$$$$$$$$$$$$$$$$$$$$$$$$$$$$$$$$$$$$$$$$$$$$$$$$$$$$$$",
"$$$$$$$$$$$$$$$$$$$$$$$$$$$$$$$$$$$$$$$$$$$$$$$$$$$$$$$$$$$$$$$$",
"$$$$$$$$$$$$$$$$$$$$$$$$$$$$$$$$$$$$$$$$$$$$$$$$$$$$$$$$$$$$$$$$",
"$$$$$$$$$$$$$$$$$$$$$$$$$$$$$$$$$$$$$$$$$$$$$$$$$$$$$$$$$$$$$$$$",
"$$$$$$$$$$$$$$$$$$$$$$$$$$$$$$$$$$$$$$$$$$$$$$$$$$$$$$$$$$$$$$$$",
"$$$$$$$$$$$$$$$$$$$$$$$$$$$$$$$$$$$$$$$$$$$$$$$$$$$$$$$$$$$$$$$$",
"$$$$$$$$$$$$$$$$$$$$$$$$$$$$$$$$$$$$$$$$$$$$$$$$$$$$$$$$$$$$$$$$",
"$$$$$$$$$$$$$$$$$$$$$$$$$$$$$$$$$$$$$$$$$$$$$$$$$$$$$$$$$$$$$$$$",
"$$$$$$$$$$$$$$$$$$$$$$$$$$$$$$$$$$$$$$$$$$$$$$$$$$$$$$$$$$$$$$$$",
"$$$$$$$$$$$$$$$$$$$$$$$$$$$$$$$$$$$$$$$$$$$$$$$$$$$$$$$$$$$$$$$$",
"$$$$$$$$$$$$$$$$$$$$$$$$$$$$$$$$$$$$$$$$$$$$$$$$$$$$$$$$$$$$$$$$",
"$$$$$$$$$$$$$$$$$$$$$$$$$$$$$$$$$$$$$$$$$$$$$$$$$$$$$$$$$$$$$$$$",
"$$$$$$$$$$$$$$$$$$$$$$$$$$$$$$$$$$$$$$$$$$$$$$$$$$$$$$$$$$$$$$$$",
"$$$$$$$$$$$$$$$$$$$$$$$$$$$$$$$$$$$$$$$$$$$$$$$$$$$$$$$$$$$$$$$$",
"$$$$$$$$                $$$$$$$$$$$$$$$$                $$$$$$$$",
"$$$$$$$$                $$$$$$$$$$$$$$$$                $$$$$$$$",
"$$$$$$$$                $$$$$$$$$$$$$$$$                $$$$$$$$",
"$$$$$$$$                $$$$$$$$$$$$$$$$                $$$$$$$$",
"        ....XXXXXXXX....                ....XXXXXXXX....        ",
"        ....XXXXXXXX....                ....XXXXXXXX....        ",
"        ....XXXXXXXX....                ....XXXXXXXX....        ",
"        ....XXXXXXXX....                ....XXXXXXXX....        ",
"........OOOO&&&&++++OOOOXXXX....XXXXOOOO++++&&&&%%%%OOOO........",
"........OOOO&&&&++++OOOOXXXX....XXXXOOOO++++&&&&%%%%OOOO........",
"........OOOO&&&&++++OOOOXXXX....XXXXOOOO++++&&&&%%%%OOOO........",
"........OOOO&&&&++++OOOOXXXX....XXXXOOOO++++&&&&%%%%OOOO........",
"....XXXX++++&&&&&&&&++++++++....XXXX++++&&&&&&&&%%%%++++OOOO....",
"....XXXX++++&&&&&&&&++++++++....XXXX++++&&&&&&&&%%%%++++OOOO....",
"....XXXX++++&&&&&&&&++++++++....XXXX++++&&&&&&&&%%%%++++OOOO....",
"....XXXX++++&&&&&&&&++++++++....XXXX++++&&&&&&&&%%%%++++OOOO....",
"....XXXX++++%%%%&&&&%%%%++++XXXXooooooooooooooooooooOOOOXXXX....",
"....XXXX++++%%%%&&&&%%%%++++XXXXooooooooooooooooooooOOOOXXXX....",
"....XXXX++++%%%%&&&&%%%%++++XXXXooooooooooooooooooooOOOOXXXX....",
"....XXXX++++%%%%&&&&%%%%++++XXXXooooooooooooooooooooOOOOXXXX....",
"ooooooooooooXXXX++++++++XXXXoooo@@@@####@@@@####@@@@ooooXXXXXXXX",
"ooooooooooooXXXX++++++++XXXXoooo@@@@####@@@@####@@@@ooooXXXXXXXX",
"ooooooooooooXXXX++++++++XXXXoooo@@@@####@@@@####@@@@ooooXXXXXXXX",
"ooooooooooooXXXX++++++++XXXXoooo@@@@####@@@@####@@@@ooooXXXXXXXX",
"####@@@@####oooooooooooooooo@@@@####@@@@####@@@@####@@@@oooooooo",
"####@@@@####oooooooooooooooo@@@@####@@@@####@@@@####@@@@oooooooo",
"####@@@@####oooooooooooooooo@@@@####@@@@####@@@@####@@@@oooooooo",
"####@@@@####oooooooooooooooo@@@@####@@@@####@@@@####@@@@oooooooo",
"@@@@####@@@@####@@@@####@@@@####@@@@####@@@@####@@@@####@@@@####",
"@@@@####@@@@####@@@@####@@@@####@@@@####@@@@####@@@@####@@@@####",
"@@@@####@@@@####@@@@####@@@@####@@@@####@@@@####@@@@####@@@@####",
"@@@@####@@@@####@@@@####@@@@####@@@@####@@@@####@@@@####@@@@####",
"####@@@@####@@@@####@@@@####@@@@####@@@@####@@@@####@@@@####@@@@",
"####@@@@####@@@@####@@@@####@@@@####@@@@####@@@@####@@@@####@@@@",
"####@@@@####@@@@####@@@@####@@@@####@@@@####@@@@####@@@@####@@@@",
"####@@@@####@@@@####@@@@####@@@@####@@@@####@@@@####@@@@####@@@@"
};
